# Blender v2.77 (sub 0) OBJ File: 'HouseRoofSlopeTop.blend'
# www.blender.org
mtllib HouseRoofSlopeTop.mtl
o Untitled_ID2
v 0.500000 0.500000 1.000000
v 0.000000 -0.000000 0.500000
v 0.500000 -0.500000 1.000000
v -0.500000 -0.500000 -0.000000
v -0.500000 0.500000 -0.000000
v 0.000000 0.000000 0.700000
v -0.500000 0.500000 0.200000
v 0.500000 0.500000 1.200000
v 0.500000 -0.500000 1.200000
v -0.500000 -0.500000 0.200000
v -0.500000 -0.500000 0.200000
v -0.500000 0.000000 0.700000
v 0.000000 0.000000 0.700000
v -0.500000 -0.000000 0.500000
v -0.500000 -0.500000 -0.000000
v 0.000000 -0.000000 0.500000
v -0.500000 0.500000 -0.000000
v -0.500000 -0.000000 0.500000
v 0.000000 -0.000000 0.500000
v -0.500000 0.000000 0.700000
v -0.500000 0.500000 0.200000
v 0.000000 0.000000 0.700000
vn 0.7071 0.0000 -0.7071
vn -0.7071 0.0000 0.7071
vn 0.0000 -0.7071 0.7071
vn 0.0000 0.7071 -0.7071
vn -0.0000 -0.7071 -0.7071
vn 0.0000 0.7071 0.7071
usemtl Roof
s off
f 1//1 3//1 2//1
f 2//1 3//1 4//1
f 5//1 1//1 2//1
f 6//2 8//2 7//2
f 8//2 6//2 9//2
f 9//2 6//2 10//2
f 11//3 13//3 12//3
f 14//4 16//4 15//4
f 17//5 19//5 18//5
f 20//6 22//6 21//6
