# Blender v2.77 (sub 0) OBJ File: 'HouseRoofTopSlope.blend'
# www.blender.org
mtllib HouseRoofTopSlope.mtl
o Untitled_ID2
v -0.500000 0.500000 0.200000
v 0.000000 0.000000 0.700000
v 0.000000 0.500000 0.700000
v -0.500000 -0.500000 0.200000
v 0.000000 -0.000000 0.500000
v -0.500000 -0.500000 0.000000
v -0.500000 0.500000 0.000000
v 0.000000 0.500000 0.500000
v 0.000000 -0.000000 0.500000
v 0.500000 -0.500000 0.000000
v -0.500000 -0.500000 0.000000
v 0.000000 0.000000 0.700000
v -0.500000 -0.500000 0.200000
v 0.500000 -0.500000 0.200000
v 0.500000 0.500000 0.200000
v 0.000000 0.500000 0.700000
v 0.000000 0.000000 0.700000
v 0.500000 -0.500000 0.200000
v 0.000000 -0.000000 0.500000
v 0.500000 0.500000 0.000000
v 0.500000 -0.500000 0.000000
v 0.000000 0.500000 0.500000
vn -0.7071 0.0000 0.7071
vn 0.7071 -0.0000 -0.7071
vn 0.0000 0.7071 -0.7071
vn 0.0000 -0.7071 0.7071
vn 0.7071 0.0000 0.7071
vn -0.7071 -0.0000 -0.7071
usemtl Roof
s off
f 1//1 2//1 3//1
f 1//1 4//1 2//1
f 5//2 6//2 7//2
f 5//2 7//2 8//2
f 9//3 10//3 11//3
f 12//4 13//4 14//4
f 15//5 16//5 17//5
f 15//5 17//5 18//5
f 19//6 20//6 21//6
f 19//6 22//6 20//6
