# Blender v2.77 (sub 0) OBJ File: 'HouseDoor.blend'
# www.blender.org
mtllib HouseDoor.mtl
o Untitled_ID2
v 0.000000 0.500000 2.140000
v -0.200000 0.500000 2.140000
v 0.000000 0.500000 2.040000
v 0.030000 0.500000 2.040000
v 0.030000 0.500000 2.140000
v 0.030000 0.500000 0.040000
v 0.030000 0.500000 0.000000
v 0.000000 0.500000 0.040000
v -0.280000 0.500000 0.000000
v -0.250000 0.500000 0.040000
v -0.280000 0.500000 0.040000
v -0.280000 0.500000 2.140000
v -0.250000 0.500000 2.040000
v -0.280000 0.500000 2.040000
v -0.250000 -0.500000 0.040000
v -0.250000 -0.500000 2.040000
v -0.250000 -0.400000 2.040000
v -0.250000 -0.400000 0.040000
v -0.250000 0.400000 0.040000
v -0.250000 0.400000 2.040000
v -0.250000 0.500000 2.040000
v -0.250000 0.500000 0.040000
v 0.000000 -0.400000 2.040000
v 0.000000 -0.500000 2.040000
v 0.000000 -0.500000 0.040000
v 0.000000 -0.400000 0.040000
v 0.000000 0.500000 2.040000
v 0.000000 0.400000 2.040000
v 0.000000 0.400000 0.040000
v 0.000000 0.500000 0.040000
v 0.000000 0.500000 2.500000
v 0.000000 -0.500000 2.140000
v 0.000000 0.500000 2.140000
v 0.000000 -0.500000 2.500000
v 0.030000 0.500000 0.000000
v 0.030000 -0.500000 0.000000
v -0.280000 -0.500000 0.000000
v -0.280000 0.500000 0.000000
v 0.000000 -0.500000 2.140000
v 0.030000 -0.500000 2.040000
v 0.030000 -0.500000 2.140000
v 0.000000 -0.500000 2.040000
v 0.030000 -0.500000 0.040000
v 0.000000 -0.500000 0.040000
v 0.030000 -0.500000 0.000000
v -0.250000 -0.500000 2.040000
v -0.250000 -0.500000 0.040000
v -0.200000 -0.500000 2.140000
v -0.280000 -0.500000 0.000000
v -0.280000 -0.500000 0.040000
v -0.280000 -0.500000 2.140000
v -0.280000 -0.500000 2.040000
v -0.250000 -0.400000 2.040000
v -0.280000 -0.500000 2.040000
v -0.280000 0.500000 2.040000
v 0.000000 0.400000 2.040000
v 0.030000 0.500000 2.040000
v 0.030000 -0.500000 2.040000
v 0.000000 -0.400000 2.040000
v -0.250000 0.400000 2.040000
v -0.250000 0.500000 2.040000
v 0.000000 0.500000 2.040000
v 0.000000 -0.500000 2.040000
v -0.250000 -0.500000 2.040000
v 0.000000 0.400000 2.040000
v -0.250000 0.400000 2.040000
v -0.250000 0.400000 0.040000
v 0.000000 0.400000 0.040000
v -0.250000 -0.400000 0.040000
v -0.250000 0.400000 0.040000
v -0.280000 0.500000 0.040000
v 0.030000 0.500000 0.040000
v 0.000000 0.500000 0.040000
v 0.000000 0.400000 0.040000
v 0.030000 -0.500000 0.040000
v 0.000000 -0.400000 0.040000
v 0.000000 -0.500000 0.040000
v -0.280000 -0.500000 0.040000
v -0.250000 -0.500000 0.040000
v -0.250000 0.500000 0.040000
v 0.000000 -0.400000 2.040000
v -0.250000 -0.400000 0.040000
v -0.250000 -0.400000 2.040000
v 0.000000 -0.400000 0.040000
v 0.030000 0.500000 0.040000
v 0.030000 -0.500000 0.040000
v 0.030000 -0.500000 0.000000
v 0.030000 0.500000 0.000000
v -0.280000 0.500000 0.040000
v -0.280000 0.500000 0.000000
v -0.280000 -0.500000 0.000000
v -0.280000 -0.500000 0.040000
v 0.030000 0.500000 2.140000
v 0.030000 -0.500000 2.140000
v 0.030000 -0.500000 2.040000
v 0.030000 0.500000 2.040000
v 0.030000 0.500000 2.140000
v 0.000000 -0.500000 2.140000
v 0.030000 -0.500000 2.140000
v 0.000000 0.500000 2.140000
v -0.280000 -0.500000 2.140000
v -0.200000 -0.500000 2.140000
v -0.200000 0.500000 2.140000
v -0.280000 0.500000 2.140000
v -0.280000 0.500000 2.140000
v -0.280000 0.500000 2.040000
v -0.280000 -0.500000 2.040000
v -0.280000 -0.500000 2.140000
v -0.200000 0.500000 2.500000
v -0.200000 -0.500000 2.140000
v -0.200000 -0.500000 2.500000
v -0.200000 0.500000 2.140000
vn 0.0000 1.0000 0.0000
vn -1.0000 0.0000 0.0000
vn 1.0000 0.0000 0.0000
vn 0.0000 0.0000 -1.0000
vn 0.0000 -1.0000 0.0000
vn 0.0000 0.0000 1.0000
usemtl Wood
s off
f 1//1 3//1 2//1
f 4//1 1//1 5//1
f 4//1 3//1 1//1
f 6//1 7//1 8//1
f 3//1 8//1 2//1
f 7//1 9//1 10//1
f 10//1 2//1 8//1
f 7//1 10//1 8//1
f 9//1 11//1 10//1
f 12//1 2//1 13//1
f 2//1 10//1 13//1
f 12//1 13//1 14//1
f 15//2 16//2 17//2
f 15//2 17//2 18//2
f 19//2 20//2 21//2
f 19//2 21//2 22//2
f 23//3 24//3 25//3
f 25//3 26//3 23//3
f 27//3 28//3 29//3
f 29//3 30//3 27//3
f 35//4 36//4 37//4
f 37//4 38//4 35//4
f 39//5 40//5 41//5
f 40//5 39//5 42//5
f 43//5 44//5 45//5
f 46//5 47//5 48//5
f 42//5 39//5 48//5
f 49//5 45//5 47//5
f 48//5 47//5 44//5
f 45//5 44//5 47//5
f 49//5 47//5 50//5
f 46//5 51//5 52//5
f 51//5 46//5 48//5
f 44//5 42//5 48//5
f 53//4 54//4 55//4
f 56//4 57//4 58//4
f 56//4 58//4 59//4
f 60//4 55//4 61//4
f 57//4 56//4 62//4
f 56//4 59//4 60//4
f 58//4 63//4 59//4
f 64//4 54//4 53//4
f 59//4 53//4 60//4
f 55//4 60//4 53//4
f 65//5 66//5 67//5
f 65//5 67//5 68//5
f 69//6 70//6 71//6
f 72//6 73//6 74//6
f 74//6 75//6 72//6
f 76//6 70//6 69//6
f 74//6 76//6 75//6
f 75//6 76//6 77//6
f 69//6 78//6 79//6
f 69//6 71//6 78//6
f 70//6 76//6 74//6
f 71//6 70//6 80//6
f 81//1 82//1 83//1
f 81//1 84//1 82//1
f 85//3 86//3 87//3
f 87//3 88//3 85//3
f 89//2 90//2 91//2
f 89//2 91//2 92//2
f 93//3 94//3 95//3
f 95//3 96//3 93//3
f 97//6 98//6 99//6
f 98//6 97//6 100//6
f 101//6 102//6 103//6
f 101//6 103//6 104//6
f 105//2 106//2 107//2
f 105//2 107//2 108//2
usemtl Wall
f 31//3 32//3 33//3
f 31//3 34//3 32//3
f 109//2 110//2 111//2
f 110//2 109//2 112//2
