# Blender v2.77 (sub 0) OBJ File: 'HouseRoofDualTopDualSlope.blend'
# www.blender.org
mtllib HouseRoofDualTopDualSlope.mtl
o Untitled_ID2.002
v -0.500000 0.500000 -0.000000
v 0.000000 -0.000000 0.500000
v -0.500000 -0.500000 1.000000
v -0.500000 0.500000 0.200000
v -0.500000 -0.500000 1.200000
v 0.000000 0.000000 0.700000
v 0.000000 0.500000 0.500000
v 0.000000 -0.000000 0.500000
v -0.500000 0.500000 -0.000000
v 0.500000 0.500000 -0.000000
v 0.000000 -0.000000 0.500000
v 0.000000 0.500000 0.500000
v -0.000000 0.500000 0.700000
v 0.000000 0.000000 0.700000
v 0.500000 0.500000 0.200000
v -0.000000 0.500000 0.700000
v -0.500000 0.500000 0.200000
v 0.000000 0.000000 0.700000
v 0.500000 -0.500000 -0.000000
v -0.500000 -0.500000 1.000000
v 0.000000 -0.000000 0.500000
v 0.000000 0.000000 0.700000
v -0.500000 -0.500000 1.200000
v 0.500000 -0.500000 0.200000
v 0.000000 -0.000000 0.500000
v 0.500000 -0.000000 0.500000
v 0.500000 -0.500000 -0.000000
v 0.500000 0.500000 -0.000000
v 0.500000 -0.000000 0.500000
v 0.000000 -0.000000 0.500000
v 0.500000 0.500000 0.200000
v 0.000000 0.000000 0.700000
v 0.500000 0.000000 0.700000
v 0.000000 0.000000 0.700000
v 0.500000 -0.500000 0.200000
v 0.500000 0.000000 0.700000
vn 0.0000 -0.7071 -0.7071
vn -0.0000 0.7071 0.7071
vn 0.7071 0.0000 -0.7071
vn -0.7071 0.0000 -0.7071
vn 0.7071 0.0000 0.7071
vn -0.7071 0.0000 0.7071
vn 0.0000 0.7071 -0.7071
vn 0.0000 -0.7071 0.7071
usemtl Roof
s off
f 1//1 2//1 3//1
f 4//2 5//2 6//2
f 7//3 8//3 9//3
f 10//4 11//4 12//4
f 13//5 14//5 15//5
f 16//6 17//6 18//6
f 19//4 20//4 21//4
f 22//5 23//5 24//5
f 25//7 26//7 27//7
f 28//1 29//1 30//1
f 31//2 32//2 33//2
f 34//8 35//8 36//8
