# Blender v2.77 (sub 0) OBJ File: 'HouseRoofEnd3.blend'
# www.blender.org
mtllib HouseRoofEnd3.mtl
o Untitled_ID2.001
v -0.300000 -0.500000 0.200000
v -0.300000 0.500000 0.200000
v -0.000000 0.500000 0.200000
v -0.000000 -0.500000 0.200000
v 0.000000 0.500000 0.000000
v -0.300000 -0.500000 -0.000000
v -0.000000 -0.500000 -0.000000
v -0.300000 0.500000 -0.000000
v -0.300000 0.500000 0.200000
v -0.300000 -0.500000 -0.000000
v -0.300000 0.500000 -0.000000
v -0.300000 -0.500000 0.200000
vn 0.0000 0.0000 1.0000
vn 0.0000 0.0000 -1.0000
vn -1.0000 -0.0000 0.0000
usemtl Wood
s off
f 1//1 3//1 2//1
f 1//1 4//1 3//1
f 5//2 7//2 6//2
f 5//2 6//2 8//2
f 9//3 11//3 10//3
f 9//3 10//3 12//3
