# Blender v2.77 (sub 0) OBJ File: 'HouseRoofEnd2.blend'
# www.blender.org
mtllib HouseRoofEnd2.mtl
o Untitled.001_ID2.003
v 0.000000 -0.300000 0.250000
v -0.300000 -0.300000 0.200000
v 0.000000 -0.300000 0.200000
v -0.300000 -0.300000 0.250000
v 0.000000 -0.300000 0.200000
v -0.300000 0.000000 0.200000
v 0.000000 0.000000 0.200000
v -0.300000 -0.300000 0.200000
v 0.000000 0.000000 0.000000
v -0.300000 -0.300000 0.000000
v 0.000000 -0.300000 0.000000
v -0.300000 0.000000 0.000000
v 0.000000 -0.300000 0.000000
v -0.300000 -0.300000 -0.050000
v 0.000000 -0.300000 -0.050000
v -0.300000 -0.300000 0.000000
v 0.000000 -0.300000 -0.050000
v -0.300000 -0.450000 -0.050000
v 0.000000 -0.450000 -0.050000
v -0.300000 -0.300000 -0.050000
v 0.000000 -0.450000 -0.050000
v -0.300000 -0.450000 0.250000
v 0.000000 -0.450000 0.250000
v -0.300000 -0.450000 -0.050000
v 0.000000 -0.450000 0.250000
v -0.300000 -0.300000 0.250000
v 0.000000 -0.300000 0.250000
v -0.300000 -0.450000 0.250000
v -0.300000 -0.300000 0.200000
v -0.300000 -0.300000 0.250000
v -0.300000 -0.450000 0.250000
v -0.300000 0.000000 0.200000
v -0.300000 -0.300000 0.000000
v -0.300000 0.000000 0.000000
v -0.300000 -0.450000 -0.050000
v -0.300000 -0.300000 -0.050000
vn 0.0000 1.0000 0.0000
vn 0.0000 0.0000 1.0000
vn 0.0000 0.0000 -1.0000
vn 0.0000 -1.0000 0.0000
vn -1.0000 0.0000 0.0000
usemtl Wood
s off
f 1//1 3//1 2//1
f 2//1 4//1 1//1
f 5//2 7//2 6//2
f 6//2 8//2 5//2
f 9//3 11//3 10//3
f 10//3 12//3 9//3
f 13//1 15//1 14//1
f 14//1 16//1 13//1
f 17//3 19//3 18//3
f 18//3 20//3 17//3
f 21//4 23//4 22//4
f 22//4 24//4 21//4
f 25//2 27//2 26//2
f 26//2 28//2 25//2
f 29//5 31//5 30//5
f 32//5 34//5 33//5
f 29//5 35//5 31//5
f 32//5 33//5 29//5
f 33//5 36//5 35//5
f 33//5 35//5 29//5
