# Blender v2.77 (sub 0) OBJ File: 'HouseRoofEnd4.blend'
# www.blender.org
mtllib HouseRoofEnd4.mtl
o Untitled_ID2
v -1.000000 0.000000 1.200000
v -1.000000 -0.300000 1.200000
v 0.000000 -0.300000 0.200000
v 0.000000 0.000000 0.200000
v 0.000000 0.000000 0.000000
v 0.000000 -0.300000 0.000000
v -1.000000 -0.300000 1.000000
v -1.000000 0.000000 1.000000
v 0.000000 -0.300000 0.250000
v 0.000000 -0.300000 0.200000
v -1.000000 -0.300000 1.200000
v -1.000000 -0.300000 1.250000
v -1.000000 -0.300000 0.950000
v -1.000000 -0.300000 1.000000
v 0.000000 -0.300000 0.000000
v 0.000000 -0.300000 -0.050000
v 0.000000 -0.300000 -0.050000
v 0.000000 -0.450000 -0.050000
v -1.000000 -0.450000 0.950000
v -1.000000 -0.300000 0.950000
v -1.000000 -0.300000 1.250000
v -1.000000 -0.450000 1.250000
v 0.000000 -0.450000 0.250000
v 0.000000 -0.300000 0.250000
v -1.000000 -0.450000 1.250000
v -1.000000 -0.450000 0.950000
v 0.000000 -0.450000 0.250000
v 0.000000 -0.450000 -0.050000
vn 0.0000 1.0000 0.0000
vn -0.7071 0.0000 -0.7071
vn 0.7071 0.0000 0.7071
vn 0.0000 -1.0000 0.0000
usemtl Wood
s off
f 9//1 10//1 11//1
f 9//1 11//1 12//1
f 13//1 14//1 15//1
f 13//1 15//1 16//1
f 17//2 18//2 19//2
f 17//2 19//2 20//2
f 21//3 22//3 23//3
f 21//3 23//3 24//3
f 25//4 26//4 27//4
f 28//4 27//4 26//4
usemtl Roof
f 1//3 2//3 3//3
f 1//3 3//3 4//3
f 5//2 6//2 7//2
f 5//2 7//2 8//2
