# Blender v2.77 (sub 0) OBJ File: 'HouseRoofDualSlopeOutter.blend'
# www.blender.org
mtllib HouseRoofDualSlopeOutter.mtl
o Untitled.001_ID10.001
v 0.500000 -0.500000 -0.000000
v 0.500000 0.500000 1.000000
v -0.500000 -0.500000 -0.000000
v -0.500000 -0.500000 0.200000
v 0.500000 0.500000 1.200000
v 0.500000 -0.500000 0.200000
v -0.500000 0.500000 -0.000000
v -0.500000 -0.500000 -0.000000
v 0.500000 0.500000 1.000000
v -0.500000 0.500000 0.200000
v 0.500000 0.500000 1.200000
v -0.500000 -0.500000 0.200000
vn 0.0000 0.7071 -0.7071
vn 0.0000 -0.7071 0.7071
vn 0.7071 0.0000 -0.7071
vn -0.7071 0.0000 0.7071
usemtl Roof
s off
f 1//1 3//1 2//1
f 4//2 6//2 5//2
f 7//3 9//3 8//3
f 10//4 12//4 11//4
