# Blender v2.77 (sub 0) OBJ File: 'HouseRoofTopDualSlope.blend'
# www.blender.org
mtllib HouseRoofTopDualSlope.mtl
o Untitled.001_ID2.001
v -0.500000 0.500000 -0.000000
v 0.000000 -0.000000 0.500000
v -0.500000 -0.500000 1.000000
v -0.500000 0.500000 0.200000
v -0.500000 -0.500000 1.200000
v 0.000000 0.000000 0.700000
v -0.500000 -0.500000 1.000000
v 0.000000 -0.000000 0.500000
v 0.500000 -0.500000 -0.000000
v 0.500000 0.500000 -0.000000
v 0.000000 0.500000 0.500000
v 0.500000 0.500000 0.200000
v 0.000000 0.000000 0.700000
v 0.500000 -0.500000 0.200000
v -0.000000 0.500000 0.700000
v -0.500000 -0.500000 1.200000
v 0.000000 0.500000 0.500000
v 0.000000 -0.000000 0.500000
v -0.500000 0.500000 -0.000000
v -0.000000 0.500000 0.700000
v -0.500000 0.500000 0.200000
v 0.000000 0.000000 0.700000
vn 0.0000 -0.7071 -0.7071
vn -0.0000 0.7071 0.7071
vn -0.7071 0.0000 -0.7071
vn 0.7071 0.0000 0.7071
vn 0.7071 0.0000 -0.7071
vn -0.7071 0.0000 0.7071
usemtl Roof
s off
f 1//1 2//1 3//1
f 4//2 5//2 6//2
f 7//3 8//3 9//3
f 10//3 9//3 8//3
f 8//3 11//3 10//3
f 12//4 13//4 14//4
f 13//4 12//4 15//4
f 13//4 16//4 14//4
f 17//5 18//5 19//5
f 20//6 21//6 22//6
