# Blender v2.77 (sub 0) OBJ File: 'HouseRoofTopTee.blend'
# www.blender.org
mtllib HouseRoofTopTee.mtl
o Untitled_ID2.002
v -0.500000 0.500000 -0.000000
v 0.000000 0.000000 0.500000
v 0.000000 0.500000 0.500000
v 0.000000 0.000000 0.700000
v -0.500000 0.500000 0.200000
v 0.000000 0.500000 0.700000
v 0.000000 0.000000 0.700000
v 0.000000 -0.500000 0.700000
v -0.500000 -0.500000 0.200000
v 0.000000 0.000000 0.500000
v -0.500000 -0.500000 -0.000000
v 0.000000 -0.500000 0.500000
v 0.500000 0.500000 -0.000000
v 0.000000 0.000000 0.500000
v 0.500000 -0.500000 0.000000
v 0.000000 -0.500000 0.500000
v 0.000000 0.500000 0.500000
v 0.500000 0.500000 0.200000
v 0.000000 0.000000 0.700000
v 0.000000 0.500000 0.700000
v 0.500000 -0.500000 0.200000
v 0.000000 -0.500000 0.700000
v -0.500000 -0.500000 0.200000
v -0.500000 0.000000 0.700000
v 0.000000 0.000000 0.700000
v -0.500000 -0.000000 0.500000
v -0.500000 -0.500000 -0.000000
v 0.000000 0.000000 0.500000
v -0.500000 0.500000 -0.000000
v -0.500000 -0.000000 0.500000
v 0.000000 0.000000 0.500000
v -0.500000 0.000000 0.700000
v -0.500000 0.500000 0.200000
v 0.000000 0.000000 0.700000
vn 0.7071 0.0000 -0.7071
vn -0.7071 0.0000 0.7071
vn -0.7071 0.0000 -0.7071
vn 0.7071 0.0000 0.7071
vn -0.0000 -0.7071 0.7071
vn 0.0000 0.7071 -0.7071
vn 0.0000 -0.7071 -0.7071
vn 0.0000 0.7071 0.7071
usemtl Roof
s off
f 1//1 3//1 2//1
f 4//2 6//2 5//2
f 7//2 9//2 8//2
f 10//1 12//1 11//1
f 13//3 15//3 14//3
f 14//3 15//3 16//3
f 14//3 17//3 13//3
f 18//4 20//4 19//4
f 21//4 19//4 22//4
f 21//4 18//4 19//4
f 23//5 25//5 24//5
f 26//6 28//6 27//6
f 29//7 31//7 30//7
f 32//8 34//8 33//8
